<svg width="24" height="24" viewBox="0 0 24 24" fill="none" xmlns="http://www.w3.org/2000/svg">
<path d="M17.5956 15.4774H16.4841L16.0902 15.0975C17.7785 13.1278 18.6508 10.4405 18.1725 7.58436C17.5112 3.67303 14.2471 0.549592 10.3076 0.0712279C4.35618 -0.660388 -0.652576 4.34837 0.0790404 10.2998C0.557405 14.2393 3.68084 17.5034 7.59218 18.1647C10.4483 18.643 13.1356 17.7707 15.1053 16.0824L15.4852 16.4763V17.5878L21.4647 23.5674C22.0416 24.1442 22.9843 24.1442 23.5611 23.5674C24.138 22.9905 24.138 22.0479 23.5611 21.471L17.5956 15.4774ZM9.15389 15.4774C5.65058 15.4774 2.8226 12.6494 2.8226 9.14608C2.8226 5.64277 5.65058 2.81479 9.15389 2.81479C12.6572 2.81479 15.4852 5.64277 15.4852 9.14608C15.4852 12.6494 12.6572 15.4774 9.15389 15.4774Z" fill="white"/>
</svg>
