<svg width="24" height="24" viewBox="0 0 24 24" fill="none" xmlns="http://www.w3.org/2000/svg">
<path d="M13.255 9.14286C13.8836 9.14286 14.3979 8.62857 14.3979 8V5.71429H16.6836C17.3122 5.71429 17.8264 5.2 17.8264 4.57143C17.8264 3.94286 17.3122 3.42857 16.6836 3.42857H14.3979V1.14286C14.3979 0.514286 13.8836 0 13.255 0C12.6265 0 12.1122 0.514286 12.1122 1.14286V3.42857H9.82645C9.19788 3.42857 8.68359 3.94286 8.68359 4.57143C8.68359 5.2 9.19788 5.71429 9.82645 5.71429H12.1122V8C12.1122 8.62857 12.6265 9.14286 13.255 9.14286ZM7.54074 19.4286C6.28359 19.4286 5.26645 20.4571 5.26645 21.7143C5.26645 22.9714 6.28359 24 7.54074 24C8.79788 24 9.82645 22.9714 9.82645 21.7143C9.82645 20.4571 8.79788 19.4286 7.54074 19.4286ZM18.9693 19.4286C17.7122 19.4286 16.695 20.4571 16.695 21.7143C16.695 22.9714 17.7122 24 18.9693 24C20.2264 24 21.255 22.9714 21.255 21.7143C21.255 20.4571 20.2264 19.4286 18.9693 19.4286ZM8.79788 13.7143H17.3122C18.1693 13.7143 18.9236 13.2457 19.3122 12.5371L23.175 5.53143C23.4836 4.98286 23.2779 4.28571 22.7293 3.97714C22.1807 3.68 21.4836 3.87429 21.1865 4.42286L17.3122 11.4286H9.28931L4.72931 1.79429C4.54645 1.39429 4.13502 1.14286 3.70074 1.14286H1.82645C1.19788 1.14286 0.683594 1.65714 0.683594 2.28571C0.683594 2.91429 1.19788 3.42857 1.82645 3.42857H2.96931L7.08359 12.1029L5.54074 14.8914C4.70645 16.4229 5.80359 18.2857 7.54074 18.2857H20.1122C20.7407 18.2857 21.255 17.7714 21.255 17.1429C21.255 16.5143 20.7407 16 20.1122 16H7.54074L8.79788 13.7143Z" fill="white"/>
</svg>
