<svg width="42" height="42" viewBox="0 0 42 42" fill="none" xmlns="http://www.w3.org/2000/svg">
<path d="M15.946 14.4583L10.4475 27.5763H6.86L4.1545 17.106C3.99 16.462 3.84825 16.2258 3.34775 15.9545C2.53225 15.5118 1.18475 15.097 0 14.838L0.0805 14.4583H5.8555C6.23288 14.4579 6.59797 14.5925 6.88486 14.8376C7.17176 15.0828 7.36156 15.4225 7.42 15.7953L8.84975 23.3868L12.3812 14.4583H15.946ZM30.0037 23.294C30.0177 19.8308 25.2158 19.64 25.249 18.093C25.2595 17.6223 25.7075 17.1218 26.6875 16.994C27.836 16.885 28.9927 17.0881 30.0352 17.582L30.6303 14.7995C29.6152 14.418 28.5402 14.2206 27.4557 14.2168C24.101 14.2168 21.7402 16.0018 21.7192 18.555C21.6982 20.4433 23.4045 21.495 24.6908 22.125C26.0138 22.7673 26.4583 23.1803 26.4513 23.7543C26.4425 24.6363 25.3977 25.023 24.4212 25.0388C22.715 25.065 21.7263 24.5785 20.9353 24.211L20.321 27.0845C21.1138 27.4485 22.5767 27.767 24.094 27.781C27.6587 27.781 29.9915 26.0205 30.0037 23.294ZM38.8605 27.5763H42L39.2612 14.4583H36.3633C36.0536 14.4554 35.7502 14.5457 35.4925 14.7173C35.2348 14.8889 35.0345 15.134 34.9177 15.4208L29.827 27.5763H33.39L34.0988 25.6163H38.4528L38.8605 27.5763ZM35.0752 22.9283L36.8602 18.002L37.8892 22.9283H35.0752ZM20.7952 14.4583L17.99 27.5763H14.595L17.4037 14.4583H20.7952Z" fill="black"/>
</svg>
