<svg width="54" height="42" viewBox="0 0 54 42" fill="none" xmlns="http://www.w3.org/2000/svg">
<g clip-path="url(#clip0_27_101)">
<path d="M9.82196 41.7912V39.0114C9.82196 37.9456 9.17366 37.2508 8.06243 37.2508C7.50692 37.2508 6.90501 37.4361 6.48828 38.0384C6.16434 37.5287 5.70141 37.2508 5.00692 37.2508C4.54379 37.2508 4.08108 37.3896 3.71053 37.8993V37.3434H2.73828V41.7912H3.71053V39.3356C3.71053 38.5481 4.12726 38.1773 4.77557 38.1773C5.42345 38.1773 5.74781 38.5943 5.74781 39.3356V41.7912H6.72006V39.3356C6.72006 38.5481 7.18277 38.1773 7.78467 38.1773C8.43298 38.1773 8.75692 38.5943 8.75692 39.3356V41.7912H9.82196ZM24.2202 37.3434H22.6463V35.9998H21.6741V37.3434H20.7944V38.2235H21.6739V40.2623C21.6739 41.2817 22.0906 41.8839 23.2018 41.8839C23.6186 41.8839 24.0813 41.745 24.4056 41.5597L24.1277 40.7256C23.8499 40.9109 23.526 40.9573 23.2944 40.9573C22.8315 40.9573 22.6463 40.6794 22.6463 40.2159V38.2235H24.2202V37.3434ZM32.4613 37.2506C31.9058 37.2506 31.5355 37.5287 31.3039 37.8993V37.3434H30.3317V41.7912H31.3039V39.2894C31.3039 38.5481 31.6279 38.1311 32.2298 38.1311C32.4149 38.1311 32.6465 38.1775 32.8317 38.2237L33.1094 37.2972C32.9243 37.2508 32.6465 37.2508 32.4613 37.2508M20.0073 37.7142C19.5442 37.3899 18.8961 37.251 18.2016 37.251C17.0906 37.251 16.3499 37.8069 16.3499 38.6872C16.3499 39.4286 16.9054 39.8455 17.8777 39.9846L18.3406 40.031C18.8499 40.1234 19.1277 40.2625 19.1277 40.4943C19.1277 40.8184 18.7573 41.0502 18.109 41.0502C17.4609 41.0502 16.9516 40.8184 16.6275 40.5869L16.1645 41.3281C16.6739 41.6988 17.3684 41.8841 18.0626 41.8841C19.359 41.8841 20.0999 41.2819 20.0999 40.4478C20.0999 39.6602 19.498 39.2431 18.5719 39.1043L18.109 39.0578C17.6923 39.0114 17.3683 38.919 17.3683 38.641C17.3683 38.3166 17.6923 38.1313 18.2016 38.1313C18.7573 38.1313 19.3128 38.3628 19.5906 38.5019L20.0073 37.7142ZM45.8414 37.251C45.2857 37.251 44.9154 37.5289 44.6838 37.8996V37.3436H43.7115V41.7914H44.6838V39.2896C44.6838 38.5483 45.0079 38.1313 45.6096 38.1313C45.795 38.1313 46.0266 38.1777 46.2118 38.2239L46.4895 37.2974C46.3043 37.251 46.0266 37.251 45.8414 37.251ZM33.4336 39.5675C33.4336 40.9111 34.3594 41.8841 35.7948 41.8841C36.4429 41.8841 36.9058 41.7452 37.3688 41.3746L36.9058 40.5869C36.5355 40.8649 36.1652 41.0038 35.7484 41.0038C34.9613 41.0038 34.4058 40.4478 34.4058 39.5675C34.4058 38.7336 34.9613 38.1775 35.7484 38.1313C36.1652 38.1313 36.5355 38.2702 36.9058 38.5483L37.3688 37.7607C36.9058 37.3899 36.4429 37.251 35.7948 37.251C34.3594 37.251 33.4336 38.2239 33.4336 39.5675ZM42.4154 39.5675V37.3436H41.4431V37.8996C41.119 37.4827 40.656 37.251 40.0541 37.251C38.8041 37.251 37.8319 38.2239 37.8319 39.5675C37.8319 40.9111 38.8041 41.8841 40.0541 41.8841C40.7022 41.8841 41.1654 41.6525 41.4431 41.2355V41.7914H42.4154V39.5675ZM38.8503 39.5675C38.8503 38.7799 39.3596 38.1313 40.1929 38.1313C40.98 38.1313 41.5357 38.7336 41.5357 39.5675C41.5357 40.3552 40.98 41.0038 40.1929 41.0038C39.3596 40.9573 38.8503 40.3552 38.8503 39.5675ZM27.2298 37.251C25.9334 37.251 25.0073 38.1775 25.0073 39.5675C25.0073 40.9575 25.9332 41.8841 27.276 41.8841C27.9241 41.8841 28.5724 41.6988 29.0817 41.2819L28.6186 40.5869C28.2482 40.8649 27.7853 41.0502 27.3224 41.0502C26.7205 41.0502 26.1186 40.7722 25.9796 39.9844H29.2669V39.614C29.3133 38.1775 28.48 37.251 27.2298 37.251ZM27.2296 38.0849C27.8313 38.0849 28.2482 38.4557 28.3406 39.1507H26.0258C26.1183 38.5483 26.5351 38.0849 27.2296 38.0849ZM51.3505 39.5675V35.583H50.3783V37.8996C50.0541 37.4827 49.5912 37.251 48.9893 37.251C47.7393 37.251 46.767 38.2239 46.767 39.5675C46.767 40.9111 47.7393 41.8841 48.9893 41.8841C49.6376 41.8841 50.1005 41.6525 50.3783 41.2355V41.7914H51.3505V39.5675ZM47.7857 39.5675C47.7857 38.7799 48.2948 38.1313 49.1283 38.1313C49.9153 38.1313 50.4709 38.7336 50.4709 39.5675C50.4709 40.3552 49.9153 41.0038 49.1283 41.0038C48.2948 40.9573 47.7857 40.3552 47.7857 39.5675ZM15.2847 39.5675V37.3436H14.3124V37.8996C13.9883 37.4827 13.5253 37.251 12.9234 37.251C11.6734 37.251 10.7012 38.2239 10.7012 39.5675C10.7012 40.9111 11.6734 41.8841 12.9234 41.8841C13.5717 41.8841 14.0347 41.6525 14.3124 41.2355V41.7914H15.2847V39.5675ZM11.6734 39.5675C11.6734 38.7799 12.1828 38.1313 13.016 38.1313C13.8031 38.1313 14.3588 38.7336 14.3588 39.5675C14.3588 40.3552 13.8031 41.0038 13.016 41.0038C12.1828 40.9573 11.6734 40.3552 11.6734 39.5675Z" fill="black"/>
<path d="M19.6797 3.56738H34.2634V29.7912H19.6797V3.56738Z" fill="#FF5F00"/>
<path d="M20.6064 16.6795C20.6064 11.3514 23.1064 6.62545 26.949 3.56747C24.1251 1.34358 20.5602 0 16.6713 0C7.45771 0 0.00390625 7.45933 0.00390625 16.6795C0.00390625 25.8994 7.45771 33.359 16.671 33.359C20.56 33.359 24.1249 32.0154 26.949 29.7913C23.1064 26.7798 20.6064 22.0076 20.6064 16.6795Z" fill="#EB001B"/>
<path d="M53.9412 16.6795C53.9412 25.8994 46.4874 33.359 37.274 33.359C33.3851 33.359 29.8202 32.0154 26.9961 29.7913C30.8851 26.7335 33.3389 22.0076 33.3389 16.6795C33.3389 11.3514 30.8387 6.62545 26.9961 3.56747C29.82 1.34358 33.3851 0 37.274 0C46.4874 0 53.9412 7.50576 53.9412 16.6795Z" fill="#F79E1B"/>
</g>
<defs>
<clipPath id="clip0_27_101">
<rect width="54" height="42" fill="white"/>
</clipPath>
</defs>
</svg>
