<svg width="24" height="24" viewBox="0 0 24 24" fill="none" xmlns="http://www.w3.org/2000/svg">
<path d="M7.19733 19.1973C5.87782 19.1973 4.81021 20.2769 4.81021 21.5964C4.81021 22.9159 5.87782 23.9955 7.19733 23.9955C8.51684 23.9955 9.59644 22.9159 9.59644 21.5964C9.59644 20.2769 8.51684 19.1973 7.19733 19.1973ZM0 1.20395C0 1.8637 0.5398 2.4035 1.19955 2.4035H2.39911L6.71751 11.5081L5.09811 14.435C4.22243 16.0424 5.374 17.9977 7.19733 17.9977H20.3924C21.0522 17.9977 21.592 17.4579 21.592 16.7982C21.592 16.1384 21.0522 15.5986 20.3924 15.5986H7.19733L8.51684 13.1995H17.4535C18.3532 13.1995 19.1449 12.7077 19.5527 11.964L23.8471 4.17884C24.291 3.38714 23.7152 2.4035 22.8035 2.4035H5.05012L4.24642 0.688141C4.05449 0.268296 3.62265 0.00439453 3.16682 0.00439453H1.19955C0.5398 0.00439453 0 0.544194 0 1.20395ZM19.1929 19.1973C17.8734 19.1973 16.8058 20.2769 16.8058 21.5964C16.8058 22.9159 17.8734 23.9955 19.1929 23.9955C20.5124 23.9955 21.592 22.9159 21.592 21.5964C21.592 20.2769 20.5124 19.1973 19.1929 19.1973Z" fill="white"/>
</svg>
