<svg width="24" height="24" viewBox="0 0 24 24" fill="none" xmlns="http://www.w3.org/2000/svg">
<path d="M1.33333 20H6.66667C7.4 20 8 19.4 8 18.6667C8 17.9333 7.4 17.3333 6.66667 17.3333H1.33333C0.6 17.3333 0 17.9333 0 18.6667C0 19.4 0.6 20 1.33333 20ZM0 5.33333C0 6.06667 0.6 6.66667 1.33333 6.66667H22.6667C23.4 6.66667 24 6.06667 24 5.33333C24 4.6 23.4 4 22.6667 4H1.33333C0.6 4 0 4.6 0 5.33333ZM1.33333 13.3333H14.6667C15.4 13.3333 16 12.7333 16 12C16 11.2667 15.4 10.6667 14.6667 10.6667H1.33333C0.6 10.6667 0 11.2667 0 12C0 12.7333 0.6 13.3333 1.33333 13.3333Z" fill="white"/>
</svg>
