<svg width="47" height="42" viewBox="0 0 47 42" fill="none" xmlns="http://www.w3.org/2000/svg">
<path d="M15.2016 21.1805C15.2016 22.1813 14.4101 22.9441 13.4064 22.9441C12.6557 22.9441 12.1009 22.5176 12.1009 21.7137C12.1009 20.7129 12.876 19.909 13.8715 19.909C14.6304 19.909 15.2016 20.3766 15.2016 21.1805ZM6.56858 17.202H6.18507C6.06267 17.202 5.94028 17.284 5.92396 17.4234L5.57309 19.6137L6.24219 19.5891C7.13976 19.5891 7.83333 19.466 7.99653 18.4242C8.1842 17.325 7.49063 17.202 6.56858 17.202ZM29.7422 17.202H29.375C29.2281 17.202 29.1302 17.284 29.1139 17.4234L28.7712 19.6137L29.424 19.5891C30.4847 19.5891 31.2191 19.343 31.2191 18.1125C31.2109 17.243 30.4358 17.202 29.7422 17.202ZM47 6.5625V35.4375C47 37.6113 45.2457 39.375 43.0833 39.375H3.91667C1.75434 39.375 0 37.6113 0 35.4375V6.5625C0 4.38867 1.75434 2.625 3.91667 2.625H43.0833C45.2457 2.625 47 4.38867 47 6.5625ZM10.4689 17.6695C10.4689 15.9469 9.14705 15.3727 7.6375 15.3727H4.37361C4.16962 15.3727 3.96563 15.5367 3.94931 15.7582L2.61111 24.1336C2.58663 24.2977 2.70903 24.4617 2.87222 24.4617H4.42257C4.64288 24.4617 4.84688 24.2238 4.87135 23.9941L5.23854 21.8121C5.32014 21.2215 6.31562 21.4266 6.70729 21.4266C9.04097 21.4266 10.4689 20.032 10.4689 17.6695ZM17.3394 18.3914H15.7891C15.479 18.3914 15.4627 18.8426 15.4464 19.0641C14.9731 18.3668 14.2877 18.2437 13.5125 18.2437C11.5134 18.2437 9.9875 20.0074 9.9875 21.9516C9.9875 23.5512 10.983 24.593 12.5741 24.593C13.3085 24.593 14.2224 24.191 14.7365 23.6168C14.6957 23.7398 14.6549 24.0023 14.6549 24.1254C14.6549 24.3141 14.7365 24.4535 14.916 24.4535H16.3194C16.5398 24.4535 16.7274 24.2156 16.7682 23.9859L17.6005 18.7113C17.625 18.5555 17.5026 18.3914 17.3394 18.3914ZM20.6441 26.4223L25.8418 18.8262C25.8826 18.7852 25.8826 18.7441 25.8826 18.6867C25.8826 18.5473 25.7602 18.3996 25.6215 18.3996H24.0549C23.9161 18.3996 23.7693 18.4816 23.6877 18.6047L21.5253 21.8039L20.6278 18.7277C20.5625 18.5473 20.383 18.3996 20.179 18.3996H18.6531C18.5144 18.3996 18.392 18.5473 18.392 18.6867C18.392 18.7852 19.9832 23.3461 20.1219 23.7809C19.9016 24.0926 18.4491 26.127 18.4491 26.373C18.4491 26.5207 18.5715 26.6355 18.7102 26.6355H20.2769C20.4238 26.6273 20.5625 26.5453 20.6441 26.4223ZM33.6425 17.6695C33.6425 15.9469 32.3207 15.3727 30.8111 15.3727H27.5717C27.3514 15.3727 27.1474 15.5367 27.1229 15.7582L25.801 24.1254C25.7847 24.2895 25.9071 24.4535 26.0622 24.4535H27.7349C27.8981 24.4535 28.0205 24.3305 28.0613 24.191L28.4285 21.8121C28.5101 21.2215 29.5056 21.4266 29.8972 21.4266C32.2146 21.4266 33.6425 20.032 33.6425 17.6695ZM40.513 18.3914H38.9627C38.6526 18.3914 38.6363 18.8426 38.6118 19.0641C38.163 18.3668 37.4694 18.2437 36.678 18.2437C34.6788 18.2437 33.153 20.0074 33.153 21.9516C33.153 23.5512 34.1484 24.593 35.7396 24.593C36.4984 24.593 37.4123 24.191 37.9019 23.6168C37.8774 23.7398 37.8203 24.0023 37.8203 24.1254C37.8203 24.3141 37.9019 24.4535 38.0814 24.4535H39.4931C39.7134 24.4535 39.901 24.2156 39.9418 23.9859L40.7741 18.7113C40.7986 18.5555 40.6762 18.3914 40.513 18.3914ZM44.3889 15.6598C44.3889 15.4957 44.2665 15.3727 44.1278 15.3727H42.6182C42.4958 15.3727 42.3734 15.4711 42.3571 15.5941L41.0352 24.1254L41.0108 24.1664C41.0108 24.3141 41.1332 24.4535 41.2964 24.4535H42.6427C42.8467 24.4535 43.0507 24.2156 43.067 23.9859L44.3889 15.6844V15.6598ZM37.0451 19.909C36.0497 19.909 35.2745 20.7047 35.2745 21.7137C35.2745 22.5094 35.8457 22.9441 36.5964 22.9441C37.5755 22.9441 38.367 22.1895 38.367 21.1805C38.3752 20.3766 37.804 19.909 37.0451 19.909Z" fill="black"/>
</svg>
