<svg width="1048" height="700" viewBox="0 0 1048 700" fill="none" xmlns="http://www.w3.org/2000/svg">
<rect x="50" y="54" width="948" height="600" fill="url(#paint0_linear_27_53)"/>
<g filter="url(#filter0_d_27_53)">
<path d="M998 243.806C968.953 285.177 935.065 329.821 898.915 371.687C864.621 411.403 828.287 448.625 792.115 478.184C755.945 507.741 719.923 529.647 686.254 538.715C602.194 561.354 546.591 569.15 499.248 554.72C451.897 540.287 412.849 503.635 361.864 437.515C332.515 399.456 268.909 343.919 202.141 300.846C168.759 279.311 134.597 260.898 103.542 249.345C84.1575 242.133 65.9975 237.6 50 236.639V654H998V243.806Z" fill="url(#paint1_linear_27_53)"/>
</g>
<defs>
<filter id="filter0_d_27_53" x="0" y="0" width="1048" height="700" filterUnits="userSpaceOnUse" color-interpolation-filters="sRGB">
<feFlood flood-opacity="0" result="BackgroundImageFix"/>
<feColorMatrix in="SourceAlpha" type="matrix" values="0 0 0 0 0 0 0 0 0 0 0 0 0 0 0 0 0 0 127 0" result="hardAlpha"/>
<feOffset dy="-4"/>
<feGaussianBlur stdDeviation="25"/>
<feComposite in2="hardAlpha" operator="out"/>
<feColorMatrix type="matrix" values="0 0 0 0 0 0 0 0 0 0 0 0 0 0 0 0 0 0 0.25 0"/>
<feBlend mode="normal" in2="BackgroundImageFix" result="effect1_dropShadow_27_53"/>
<feBlend mode="normal" in="SourceGraphic" in2="effect1_dropShadow_27_53" result="shape"/>
</filter>
<linearGradient id="paint0_linear_27_53" x1="50" y1="654" x2="1048.42" y2="154.866" gradientUnits="userSpaceOnUse">
<stop stop-color="#FF626D"/>
<stop offset="1" stop-color="#FCAD72"/>
</linearGradient>
<linearGradient id="paint1_linear_27_53" x1="50" y1="654" x2="1048.42" y2="154.866" gradientUnits="userSpaceOnUse">
<stop stop-color="#FF626D"/>
<stop offset="1" stop-color="#FCAD72"/>
</linearGradient>
</defs>
</svg>
