<svg width="2020" height="1000" viewBox="0 0 2020 1000" fill="none" xmlns="http://www.w3.org/2000/svg">
<rect x="1970" y="946" width="1920" height="900" transform="rotate(-180 1970 946)" fill="url(#paint0_linear_27_56)"/>
<g filter="url(#filter0_d_27_56)">
<path d="M50 946L1970 946V384.209C1919.55 489.661 1873.04 567.428 1824.4 620.362C1775.6 673.467 1724.63 701.613 1665.36 707.612C1606.12 713.608 1538.68 697.464 1456.97 662.184C1375.25 626.901 1279.2 572.449 1162.71 501.754C1137.15 486.246 1106.39 489.125 1072.96 500.934C1042.39 511.732 1009.72 529.948 976.969 548.213C973.896 549.926 970.822 551.64 967.749 553.349C931.954 573.248 896.276 592.382 863.468 600.995C847.056 605.304 831.329 606.99 816.642 604.807C801.945 602.622 788.326 596.567 776.131 585.448C754.017 565.284 733.814 546.539 715.151 529.222L715.146 529.217C672.186 489.358 637.391 457.073 606.25 432.502C561.588 397.264 524.536 377.973 481.833 374.972C439.111 371.97 390.627 385.263 323.08 415.43C257.025 444.931 172.824 490.527 58.0542 552.676L58.0491 552.679L50.2723 556.89L50 556.541V946Z" fill="url(#paint1_linear_27_56)"/>
</g>
<defs>
<filter id="filter0_d_27_56" x="0" y="0" width="2020" height="1000" filterUnits="userSpaceOnUse" color-interpolation-filters="sRGB">
<feFlood flood-opacity="0" result="BackgroundImageFix"/>
<feColorMatrix in="SourceAlpha" type="matrix" values="0 0 0 0 0 0 0 0 0 0 0 0 0 0 0 0 0 0 127 0" result="hardAlpha"/>
<feOffset dy="4"/>
<feGaussianBlur stdDeviation="25"/>
<feComposite in2="hardAlpha" operator="out"/>
<feColorMatrix type="matrix" values="0 0 0 0 0 0 0 0 0 0 0 0 0 0 0 0 0 0 0.25 0"/>
<feBlend mode="normal" in2="BackgroundImageFix" result="effect1_dropShadow_27_56"/>
<feBlend mode="normal" in="SourceGraphic" in2="effect1_dropShadow_27_56" result="shape"/>
</filter>
<linearGradient id="paint0_linear_27_56" x1="1970" y1="1396" x2="3890" y2="1396" gradientUnits="userSpaceOnUse">
<stop stop-color="#FCAD72"/>
<stop offset="1" stop-color="#FF626D"/>
</linearGradient>
<linearGradient id="paint1_linear_27_56" x1="1970" y1="496" x2="50" y2="496" gradientUnits="userSpaceOnUse">
<stop stop-color="#FCAD72"/>
<stop offset="1" stop-color="#FF626D"/>
</linearGradient>
</defs>
</svg>
