<?xml version="1.0" encoding="UTF-8"?>
<svg preserveAspectRatio="xMidYMid slice" xmlns="http://www.w3.org/2000/svg" width="34px" height="7px" viewBox="0 0 220 50" fill="none">
  <rect width="49.9189" height="50" rx="24.9594" fill="#232227"></rect>
  <path fill-rule="evenodd" clip-rule="evenodd" d="M36.984 9.36805C36.954 10.3781 36.874 11.2781 36.824 11.7781C38.704 11.7981 40.224 13.3281 40.224 15.2181C40.224 17.118 38.684 18.6581 36.794 18.6581C34.904 18.6581 33.364 17.118 33.364 15.2181C33.364 13.738 34.304 12.4781 35.624 11.988C35.464 11.4181 35.084 10.6681 34.174 10.9281C31.084 11.7881 27.594 11.8981 26.234 9.82805C29.124 10.8681 31.674 9.29805 33.044 8.16805C34.344 7.08805 37.064 7.20805 36.994 9.36805H36.984ZM19.334 22.0981C18.934 22.1581 18.504 22.0581 18.154 21.7981C17.444 21.2681 17.304 20.2681 17.824 19.5681L22.704 12.988C22.954 12.648 23.334 12.4181 23.754 12.3581C24.174 12.2981 24.594 12.4081 24.934 12.6581L31.514 17.5881C32.214 18.1181 32.364 19.1181 31.834 19.8181C31.304 20.5281 30.304 20.6681 29.604 20.1381L24.304 16.1681L20.384 21.4581C20.124 21.8181 19.734 22.0281 19.334 22.0881V22.0981ZM20.594 37.8481C19.784 37.8481 19.064 37.288 18.874 36.4681C18.664 35.518 19.254 34.5781 20.204 34.3581L27.084 32.8081L21.664 27.378C20.974 26.688 20.974 25.5681 21.664 24.878C22.354 24.188 23.464 24.188 24.154 24.878L31.834 32.5681C32.284 33.0181 32.464 33.688 32.284 34.3081C32.104 34.9281 31.604 35.3981 30.974 35.5381L20.974 37.798C20.844 37.8281 20.714 37.8381 20.584 37.8381L20.594 37.8481ZM7.43399 41.9881C7.77399 42.3281 8.21399 42.4981 8.65399 42.4981C9.09399 42.4981 9.54399 42.3281 9.88399 41.9881L21.394 30.4181L18.934 27.9681L7.43399 39.5381C6.75399 40.2181 6.76399 41.3181 7.43399 41.9981V41.9881ZM42.844 23.4881C42.474 22.6481 41.484 22.2681 40.654 22.6381L34.594 25.3281L33.004 21.7381L31.424 26.3881L32.284 28.3181H32.314C32.724 29.0581 33.654 29.3881 34.454 29.0281L42.004 25.6681C42.844 25.298 43.224 24.3081 42.844 23.4681V23.4881Z" fill="url(#paint0_linear_7_66)"></path>
  <path d="M70.5132 26.0339C69.9294 25.7966 69.3879 25.5339 68.8887 25.2373C68.3895 24.9492 67.958 24.5932 67.5942 24.1865C67.2304 23.7712 66.9512 23.2882 66.7481 22.7373C66.545 22.178 66.4435 21.517 66.4435 20.7543C66.4435 19.8051 66.6043 18.9661 66.9342 18.2458C67.2642 17.5255 67.7211 16.9153 68.3134 16.4238C68.9056 15.9322 69.6163 15.5594 70.4624 15.2966C71.3 15.0424 72.2307 14.9153 73.246 14.9153C74.0836 14.9153 74.9382 15 75.8181 15.178C76.6896 15.3475 77.7387 15.6526 78.9571 16.0678L77.0957 19.4068C75.9112 18.839 74.6674 18.5594 73.356 18.5594C73.1022 18.5594 72.8399 18.5848 72.5607 18.6441C72.2899 18.6949 72.0446 18.7966 71.8246 18.9322C71.6046 19.0678 71.4269 19.2543 71.2746 19.4916C71.1308 19.7288 71.0547 20.0424 71.0547 20.4238C71.0547 20.7373 71.1139 20.9916 71.2323 21.1949C71.3508 21.3983 71.5031 21.5678 71.6808 21.7119C71.8669 21.856 72.07 21.9831 72.3069 22.0848C72.5438 22.1865 72.7807 22.2797 73.0176 22.3729L74.6336 23C75.3274 23.2712 75.9619 23.5594 76.5288 23.8644C77.1042 24.1695 77.5864 24.5339 77.9925 24.9577C78.3902 25.3899 78.7033 25.9153 78.9232 26.5339C79.1432 27.1526 79.2532 27.9322 79.2532 28.8644C79.2532 29.7966 79.084 30.6441 78.7456 31.4153C78.4071 32.1865 77.9164 32.839 77.2734 33.3729C76.6303 33.9153 75.8266 34.3305 74.879 34.6356C73.9313 34.9407 72.8484 35.0848 71.63 35.0848C71.0631 35.0848 70.547 35.0678 70.0732 35.0339C69.5994 35 69.1425 34.9322 68.6941 34.839C68.2457 34.7458 67.8057 34.6356 67.3573 34.5085C66.9089 34.3814 66.4351 34.2204 65.9189 34.017L66.8496 30.178C67.5942 30.3814 68.3303 30.5594 69.0495 30.7119C69.7686 30.8644 70.5047 30.9407 71.2493 30.9407C72.2476 30.9407 73.0176 30.8051 73.5421 30.5424C74.0667 30.2797 74.3798 29.7712 74.4728 29.0255C74.5067 28.6441 74.4644 28.3221 74.3375 28.0678C74.2106 27.8136 74.0244 27.5933 73.7875 27.4238C73.5506 27.2543 73.2883 27.1102 72.9922 27L72.1207 26.6695L70.5047 26.0424L70.5132 26.0339Z" fill="white"></path>
  <path d="M82.4011 23.8983H80.709V20.4492H82.4011V16.5593H86.4962V20.4492H89.8805L87.9684 23.8983H86.3524L86.4877 24.7712V29.0763C86.4877 29.5509 86.5216 29.9322 86.5808 30.2288C86.6485 30.517 86.7415 30.7458 86.8854 30.9153C87.0208 31.0763 87.1984 31.1949 87.4015 31.2542C87.613 31.322 87.8499 31.3475 88.1291 31.3475C88.3322 31.3475 88.5776 31.322 88.8652 31.2797C89.1529 31.2373 89.4659 31.1864 89.7959 31.1271L90.0159 32.9661L90.1766 34.6102C89.6521 34.7203 89.1698 34.8051 88.7298 34.8559C88.2899 34.9068 87.8499 34.9407 87.393 34.9407C85.7009 34.9407 84.4402 34.5509 83.6195 33.7627C82.7988 32.9746 82.3927 31.678 82.3927 29.8729V23.8983H82.4011Z" fill="white"></path>
  <path d="M95.3459 20.4746V34.7712H91.2255V24.8814L91.3609 23.8983H89.0088L90.8702 20.4746H95.3459Z" fill="white"></path>
  <path d="M111.226 23.8645H108.934L110.736 20.4662H114.695L115.051 22.0001C115.508 21.5085 116.049 21.0933 116.675 20.7628C117.301 20.4323 118.029 20.2712 118.85 20.2712C120.508 20.2712 121.735 20.7119 122.539 21.6017C123.342 22.4916 123.74 23.8899 123.74 25.8051V34.7628H119.586V26.517C119.586 25.678 119.383 25.0763 118.968 24.7119C118.554 24.3475 118.037 24.1611 117.394 24.1611C116.87 24.1611 116.396 24.339 115.973 24.695C115.55 25.0509 115.347 25.6441 115.347 26.4662V34.7712H111.218V23.8645H111.226Z" fill="white"></path>
  <path d="M137.811 24.1526C137.472 23.2204 137.007 22.4662 136.415 21.8814C135.822 21.2967 135.12 20.8729 134.299 20.6102C133.479 20.3475 132.599 20.2119 131.651 20.2119C130.704 20.2119 129.798 20.3475 128.986 20.6272C128.174 20.8984 127.472 21.339 126.879 21.9323C126.287 22.5255 125.822 23.2882 125.483 24.2034C125.145 25.1272 124.976 26.2373 124.976 27.5339C124.976 28.8306 125.145 29.9746 125.483 30.9068C125.822 31.839 126.287 32.5933 126.879 33.178C127.472 33.7628 128.174 34.1865 128.986 34.4492C129.798 34.7119 130.687 34.8475 131.651 34.8475C132.616 34.8475 133.479 34.7119 134.299 34.4492C135.12 34.1865 135.822 33.7628 136.415 33.178C137.007 32.5933 137.472 31.839 137.811 30.9068C138.149 29.9746 138.318 28.8475 138.318 27.5339C138.318 26.2204 138.149 25.0933 137.811 24.1611V24.1526ZM133.572 30.4238C133.106 30.9746 132.463 31.2458 131.643 31.2458C130.822 31.2458 130.179 30.9746 129.705 30.4238C129.231 29.8729 128.994 28.9068 128.994 27.517C128.994 26.1272 129.24 25.2034 129.722 24.6272C130.204 24.0509 130.847 23.7628 131.651 23.7628C132.455 23.7628 133.115 24.0424 133.58 24.6017C134.046 25.1611 134.274 26.1356 134.274 27.517C134.274 28.8984 134.037 29.8729 133.58 30.4238H133.572Z" fill="white"></path>
  <path d="M108.519 24.2966C108.249 23.3644 107.851 22.6017 107.343 22.0085C106.836 21.4152 106.201 20.983 105.448 20.7203C104.695 20.4576 103.84 20.322 102.893 20.322C101.945 20.322 101.057 20.4661 100.27 20.7458C99.4831 21.0254 98.8232 21.4661 98.2732 22.0593C97.7233 22.6525 97.3002 23.4152 97.0041 24.3305C96.708 25.2542 96.5557 26.3644 96.5557 27.661C96.5557 28.9576 96.708 30.1186 97.0041 31.0424C97.3087 31.9661 97.7317 32.7119 98.2732 33.2881C98.8147 33.8644 99.4831 34.2796 100.27 34.5339C101.057 34.7881 101.928 34.9152 102.893 34.9152C104.204 34.9152 105.33 34.6017 106.269 33.9661C107.208 33.339 108.003 32.339 108.655 30.9661C108.655 30.983 108.494 30.9407 108.164 30.8305C107.834 30.7203 107.47 30.5932 107.072 30.4491C106.599 30.2881 106.083 30.1102 105.516 29.9322C105.152 30.5508 104.763 30.9661 104.357 31.1695C103.95 31.3729 103.46 31.4491 102.893 31.4152C102.546 31.3983 102.233 31.3474 101.962 31.2796C101.691 31.2034 101.454 31.0763 101.268 30.8983C101.074 30.7119 100.93 30.4661 100.828 30.1441C100.727 29.822 100.668 29.3983 100.651 28.8729L101.226 28.9576H108.875L108.925 28.0932V27.6695C108.925 26.3559 108.79 25.2288 108.519 24.2966ZM104.39 25.8051H101.218C101.125 25.8051 101.048 25.8051 100.972 25.822C100.896 25.8305 100.82 25.8474 100.727 25.8644C100.803 25.2288 100.998 24.7288 101.311 24.3729C101.632 24.0169 102.157 23.839 102.884 23.839C103.519 23.839 103.993 24.0169 104.289 24.3729C104.593 24.7288 104.763 25.2288 104.797 25.8644L104.39 25.8135V25.8051Z" fill="white"></path>
  <path d="M149.757 26.0339C149.173 25.7966 148.632 25.5339 148.133 25.2373C147.633 24.9492 147.202 24.5932 146.838 24.1865C146.474 23.7712 146.195 23.2882 145.992 22.7373C145.789 22.178 145.696 21.517 145.696 20.7543C145.696 19.8051 145.857 18.9661 146.187 18.2458C146.516 17.5255 146.973 16.9153 147.566 16.4238C148.158 15.9322 148.869 15.5594 149.715 15.2966C150.552 15.0424 151.483 14.9153 152.498 14.9153C153.336 14.9153 154.19 15 155.07 15.178C155.942 15.3475 156.991 15.6526 158.209 16.0678L156.348 19.4068C155.163 18.839 153.92 18.5594 152.608 18.5594C152.354 18.5594 152.092 18.5848 151.813 18.6441C151.542 18.6949 151.297 18.7966 151.077 18.9322C150.857 19.0678 150.679 19.2543 150.527 19.4916C150.383 19.7288 150.307 20.0424 150.307 20.4238C150.307 20.7373 150.366 20.9916 150.485 21.1949C150.603 21.3983 150.755 21.5678 150.933 21.7119C151.111 21.856 151.322 21.9831 151.559 22.0848C151.796 22.1865 152.033 22.2797 152.27 22.3729L153.886 23C154.58 23.2712 155.214 23.5594 155.781 23.8644C156.356 24.1695 156.839 24.5339 157.245 24.9577C157.642 25.3899 157.956 25.9153 158.176 26.5339C158.395 27.1526 158.505 27.9322 158.505 28.8644C158.505 29.7966 158.336 30.6441 157.998 31.4153C157.659 32.1865 157.169 32.839 156.526 33.3729C155.883 33.9153 155.079 34.3305 154.131 34.6356C153.184 34.9407 152.101 35.0848 150.882 35.0848C150.315 35.0848 149.799 35.0678 149.325 35.0339C148.852 35 148.395 34.9322 147.946 34.839C147.498 34.7458 147.05 34.6356 146.61 34.5085C146.161 34.3814 145.687 34.2204 145.18 34.017L146.11 30.178C146.855 30.3814 147.591 30.5594 148.31 30.7119C149.029 30.8644 149.765 30.9407 150.51 30.9407C151.508 30.9407 152.278 30.8051 152.803 30.5424C153.327 30.2797 153.641 29.7712 153.734 29.0255C153.767 28.6441 153.725 28.3221 153.598 28.0678C153.471 27.8136 153.285 27.5933 153.048 27.4238C152.811 27.2543 152.549 27.1102 152.253 27L151.381 26.6695L149.765 26.0424L149.757 26.0339Z" fill="white"></path>
  <path d="M161.23 18.8814C161.23 18.8814 161.103 18.9069 160.858 18.9069H158.903L160.765 15.5679H165.359V21.7628C165.74 21.3984 166.213 21.0763 166.78 20.7882C167.347 20.5085 168.016 20.3645 168.802 20.3645C170.427 20.3645 171.628 20.8136 172.424 21.7204C173.219 22.6272 173.608 24.0594 173.608 26.034V34.7713H169.454V26.5763C169.454 25.8645 169.293 25.2967 168.963 24.8814C168.633 24.4577 168.134 24.2543 167.457 24.2543C166.873 24.2543 166.383 24.4153 165.968 24.7374C165.562 25.0594 165.35 25.6611 165.35 26.5594V34.7797H161.171L161.222 18.8899L161.23 18.8814Z" fill="white"></path>
  <path d="M188.872 24.2544C188.534 23.3222 188.068 22.568 187.476 21.9832C186.884 21.3985 186.182 20.9747 185.361 20.712C184.54 20.4493 183.66 20.3137 182.713 20.3137C181.765 20.3137 180.86 20.4493 180.048 20.729C179.235 21.0002 178.533 21.4408 177.941 22.0341C177.349 22.6273 176.883 23.39 176.545 24.3052C176.206 25.229 176.037 26.3391 176.037 27.6358C176.037 28.9324 176.206 30.0764 176.545 31.0086C176.883 31.9408 177.349 32.6951 177.941 33.2798C178.533 33.8646 179.235 34.2883 180.048 34.551C180.86 34.8137 181.748 34.9493 182.713 34.9493C183.677 34.9493 184.54 34.8137 185.361 34.551C186.182 34.2883 186.884 33.8646 187.476 33.2798C188.068 32.6951 188.534 31.9408 188.872 31.0086C189.211 30.0764 189.38 28.9493 189.38 27.6358C189.38 26.3222 189.211 25.1951 188.872 24.2629V24.2544ZM184.633 30.5256C184.168 31.0764 183.525 31.3476 182.704 31.3476C181.884 31.3476 181.241 31.0764 180.767 30.5256C180.293 29.9747 180.056 29.0086 180.056 27.6188C180.056 26.229 180.301 25.3052 180.784 24.729C181.266 24.1527 181.909 23.8646 182.713 23.8646C183.516 23.8646 184.176 24.1442 184.642 24.7036C185.107 25.2629 185.336 26.2375 185.336 27.6188C185.336 29.0002 185.099 29.9747 184.642 30.5256H184.633Z" fill="white"></path>
  <path d="M203.39 24.2798C203.12 23.3475 202.722 22.5848 202.214 21.9916C201.707 21.3984 201.072 20.9662 200.319 20.7035C199.566 20.4408 198.712 20.3052 197.764 20.3052C196.816 20.3052 195.928 20.4492 195.141 20.7289C194.354 21.0086 193.694 21.4492 193.144 22.0425C192.594 22.6357 192.171 23.3984 191.875 24.3137C191.579 25.2374 191.427 26.3475 191.427 27.6442C191.427 28.9408 191.579 30.1018 191.875 31.0255C192.18 31.9492 192.603 32.695 193.144 33.2713C193.686 33.8475 194.354 34.2628 195.141 34.517C195.928 34.7713 196.799 34.8984 197.764 34.8984C199.075 34.8984 200.201 34.5848 201.14 33.9492C202.079 33.3221 202.874 32.3221 203.534 30.9492C203.534 30.9662 203.373 30.9238 203.043 30.8137C202.714 30.7035 202.35 30.5764 201.952 30.4323C201.478 30.2713 200.962 30.0933 200.395 29.9153C200.031 30.534 199.642 30.9492 199.236 31.1442C198.822 31.3475 198.339 31.4238 197.772 31.3899C197.425 31.373 197.112 31.3221 196.842 31.2543C196.571 31.1781 196.334 31.0509 196.148 30.873C195.953 30.6865 195.809 30.4408 195.708 30.1187C195.606 29.7967 195.547 29.373 195.53 28.8475L196.106 28.9323H203.754L203.805 28.0679V27.6442C203.805 26.3306 203.67 25.2035 203.399 24.2713L203.39 24.2798ZM199.261 25.7882H196.089C195.996 25.7882 195.919 25.7882 195.843 25.8052C195.767 25.8136 195.691 25.8306 195.598 25.8475C195.674 25.212 195.869 24.712 196.182 24.356C196.495 24.0001 197.028 23.8221 197.755 23.8221C198.39 23.8221 198.864 24.0001 199.16 24.356C199.465 24.712 199.625 25.212 199.668 25.8475L199.261 25.7967V25.7882Z" fill="white"></path>
  <path d="M209.406 28.8559C208.425 28.5677 207.612 28.1186 206.978 27.5169C206.343 26.9152 206.022 26.0423 206.022 24.9152C206.022 23.4914 206.521 22.3728 207.528 21.5762C208.526 20.7711 209.914 20.3728 211.682 20.3728C212.359 20.3728 213.053 20.4491 213.772 20.5931C214.491 20.7372 215.388 21.0084 216.462 21.3898L214.821 24.3474C214.254 24.144 213.772 23.9999 213.357 23.8982C212.943 23.7965 212.477 23.7457 211.953 23.7457C211.462 23.7457 211.073 23.8135 210.794 23.9491C210.514 24.0847 210.371 24.3135 210.371 24.6186C210.371 24.8728 210.472 25.0592 210.684 25.1694C210.895 25.2796 211.174 25.3982 211.521 25.5253L212.993 25.966C213.484 26.1101 213.941 26.2881 214.373 26.483C214.804 26.6779 215.168 26.9321 215.464 27.2372C215.769 27.5423 216.005 27.9152 216.175 28.3728C216.352 28.8304 216.437 29.3898 216.437 30.0423C216.437 30.7372 216.293 31.3813 216.014 31.9745C215.735 32.5677 215.32 33.0847 214.787 33.5253C214.246 33.966 213.594 34.305 212.816 34.5508C212.046 34.7965 211.166 34.9236 210.176 34.9236C209.795 34.9236 209.423 34.9067 209.068 34.8813C208.712 34.8559 208.365 34.805 208.018 34.7457C207.672 34.6779 207.308 34.5931 206.927 34.483C206.546 34.3728 206.132 34.2457 205.7 34.1016C205.734 33.9745 205.776 33.8304 205.81 33.6609C205.844 33.4914 205.903 33.2881 205.971 33.0423C206.039 32.7965 206.123 32.4999 206.216 32.1525C206.309 31.805 206.428 31.3728 206.572 30.8643C207.333 31.0677 207.976 31.2118 208.501 31.305C209.017 31.3982 209.541 31.4406 210.074 31.4406C210.294 31.4406 210.523 31.4236 210.768 31.3898C211.014 31.3559 211.25 31.2881 211.462 31.1948C211.682 31.1016 211.86 30.983 212.012 30.8389C212.156 30.6948 212.232 30.4999 212.232 30.2626C212.232 29.9914 212.139 29.7965 211.944 29.6864C211.75 29.5762 211.462 29.4575 211.081 29.3304L209.414 28.8643L209.406 28.8559Z" fill="white"></path>
  <defs>
    <linearGradient id="paint0_linear_7_66" x1="7.68399" y1="43.3781" x2="43.744" y2="8.31806" gradientUnits="userSpaceOnUse">
      <stop stop-color="#FF626D"></stop>
      <stop offset="1" stop-color="#FCAD72"></stop>
    </linearGradient>
  </defs>
</svg>
